{
  "asset": {
    "version": "2.0",
    "generator": "headless-cocos-e2e"
  },
  "extensionsUsed": [
    "KHR_materials_ior",
    "KHR_materials_specular",
    "KHR_materials_anisotropy"
  ],
  "scene": 0,
  "scenes": [
    {
      "nodes": [
        0
      ]
    }
  ],
  "nodes": [
    {
      "mesh": 0,
      "name": "IorAnisoTri"
    }
  ],
  "meshes": [
    {
      "name": "IorAnisoTri",
      "primitives": [
        {
          "attributes": {
            "POSITION": 0,
            "NORMAL": 1,
            "TEXCOORD_0": 2
          },
          "indices": 3,
          "material": 0
        }
      ]
    }
  ],
  "materials": [
    {
      "name": "glass_aniso",
      "pbrMetallicRoughness": {
        "baseColorFactor": [
          0.9,
          0.95,
          1,
          1
        ],
        "metallicFactor": 0,
        "roughnessFactor": 0.1
      },
      "extensions": {
        "KHR_materials_ior": {
          "ior": 1.4
        },
        "KHR_materials_specular": {
          "specularFactor": 0.8
        },
        "KHR_materials_anisotropy": {
          "anisotropyStrength": 0.7,
          "anisotropyRotation": 1.5707963267948966
        }
      }
    }
  ],
  "accessors": [
    {
      "bufferView": 0,
      "componentType": 5126,
      "count": 3,
      "type": "VEC3",
      "max": [
        1,
        1,
        0
      ],
      "min": [
        0,
        0,
        0
      ]
    },
    {
      "bufferView": 1,
      "componentType": 5126,
      "count": 3,
      "type": "VEC3"
    },
    {
      "bufferView": 2,
      "componentType": 5126,
      "count": 3,
      "type": "VEC2"
    },
    {
      "bufferView": 3,
      "componentType": 5123,
      "count": 3,
      "type": "SCALAR"
    }
  ],
  "bufferViews": [
    {
      "buffer": 0,
      "byteOffset": 0,
      "byteLength": 36
    },
    {
      "buffer": 0,
      "byteOffset": 36,
      "byteLength": 36
    },
    {
      "buffer": 0,
      "byteOffset": 72,
      "byteLength": 24
    },
    {
      "buffer": 0,
      "byteOffset": 96,
      "byteLength": 6
    }
  ],
  "buffers": [
    {
      "byteLength": 102,
      "uri": "mesh.bin"
    }
  ]
}