{
  "asset": {
    "version": "2.0",
    "generator": "headless-cocos-e2e"
  },
  "extensionsUsed": [
    "KHR_materials_variants"
  ],
  "extensions": {
    "KHR_materials_variants": {
      "variants": [
        {
          "name": "Yellow"
        },
        {
          "name": "Cyan"
        }
      ]
    }
  },
  "scene": 0,
  "scenes": [
    {
      "nodes": [
        0
      ]
    }
  ],
  "nodes": [
    {
      "mesh": 0,
      "name": "VariantTri"
    }
  ],
  "meshes": [
    {
      "name": "VariantTri",
      "primitives": [
        {
          "attributes": {
            "POSITION": 0,
            "NORMAL": 1,
            "TEXCOORD_0": 2
          },
          "indices": 3,
          "material": 0,
          "extensions": {
            "KHR_materials_variants": {
              "mappings": [
                {
                  "material": 1,
                  "variants": [
                    0
                  ]
                },
                {
                  "material": 2,
                  "variants": [
                    1
                  ]
                }
              ]
            }
          }
        }
      ]
    }
  ],
  "materials": [
    {
      "name": "DefaultRed",
      "pbrMetallicRoughness": {
        "baseColorFactor": [
          1,
          0,
          0,
          1
        ],
        "metallicFactor": 0,
        "roughnessFactor": 1
      }
    },
    {
      "name": "Yellow",
      "pbrMetallicRoughness": {
        "baseColorFactor": [
          1,
          1,
          0,
          1
        ],
        "metallicFactor": 0,
        "roughnessFactor": 1
      }
    },
    {
      "name": "Cyan",
      "pbrMetallicRoughness": {
        "baseColorFactor": [
          0,
          1,
          1,
          1
        ],
        "metallicFactor": 0,
        "roughnessFactor": 1
      }
    }
  ],
  "accessors": [
    {
      "bufferView": 0,
      "componentType": 5126,
      "count": 3,
      "type": "VEC3",
      "max": [
        1,
        1,
        0
      ],
      "min": [
        0,
        0,
        0
      ]
    },
    {
      "bufferView": 1,
      "componentType": 5126,
      "count": 3,
      "type": "VEC3"
    },
    {
      "bufferView": 2,
      "componentType": 5126,
      "count": 3,
      "type": "VEC2"
    },
    {
      "bufferView": 3,
      "componentType": 5123,
      "count": 3,
      "type": "SCALAR"
    }
  ],
  "bufferViews": [
    {
      "buffer": 0,
      "byteOffset": 0,
      "byteLength": 36
    },
    {
      "buffer": 0,
      "byteOffset": 36,
      "byteLength": 36
    },
    {
      "buffer": 0,
      "byteOffset": 72,
      "byteLength": 24
    },
    {
      "buffer": 0,
      "byteOffset": 96,
      "byteLength": 6
    }
  ],
  "buffers": [
    {
      "byteLength": 102,
      "uri": "mesh.bin"
    }
  ]
}
