{
  "asset": { "version": "2.0", "generator": "headless-cocos-e2e" },
  "scene": 0,
  "scenes": [{ "nodes": [0] }],
  "nodes": [{ "mesh": 0, "name": "AlphaCube" }],
  "meshes": [{
    "name": "AlphaCube",
    "primitives": [
      {
        "attributes": { "POSITION": 0 },
        "indices": 1,
        "material": 0
      },
      {
        "attributes": { "POSITION": 0 },
        "indices": 1,
        "material": 1
      }
    ]
  }],
  "materials": [
    {
      "name": "blend_glass",
      "alphaMode": "BLEND",
      "doubleSided": true,
      "pbrMetallicRoughness": {
        "baseColorFactor": [1, 0, 0, 0.4],
        "metallicFactor": 0,
        "roughnessFactor": 0.5
      }
    },
    {
      "name": "mask_cutout",
      "alphaMode": "MASK",
      "alphaCutoff": 0.3,
      "pbrMetallicRoughness": {
        "baseColorFactor": [0, 1, 0, 1],
        "metallicFactor": 0,
        "roughnessFactor": 1
      }
    }
  ],
  "accessors": [
    {
      "bufferView": 0,
      "componentType": 5126,
      "count": 3,
      "type": "VEC3",
      "max": [1, 1, 0],
      "min": [0, 0, 0]
    },
    {
      "bufferView": 1,
      "componentType": 5123,
      "count": 3,
      "type": "SCALAR"
    }
  ],
  "bufferViews": [
    { "buffer": 0, "byteOffset": 0, "byteLength": 36 },
    { "buffer": 0, "byteOffset": 36, "byteLength": 6 }
  ],
  "buffers": [{
    "byteLength": 42,
    "uri": "data:application/octet-stream;base64,"
  }]
}
